<svg width="25" height="21" viewBox="0 0 25 21" fill="none" xmlns="http://www.w3.org/2000/svg">
<path d="M25 15.1367C25 14.329 24.3429 13.6719 23.5352 13.6719H23.0469V12.0981C23.067 12.0807 23.0875 12.0639 23.1073 12.0459C23.4242 11.757 24.0862 11.5723 24.5179 11.5668C24.7875 11.5634 25.0034 11.342 25 11.0724C24.9966 10.8049 24.7787 10.5903 24.5118 10.5903C24.5098 10.5903 24.5076 10.5903 24.5056 10.5903C24.0866 10.5956 23.5299 10.7068 23.0469 10.9352V9.65527C23.6414 9.41196 24.0367 8.79985 23.9518 8.12036C23.3758 3.49102 19.4183 0 14.7461 0H10.2539C5.58174 0 1.62417 3.49102 1.04819 8.12016C0.963574 8.79766 1.35615 9.41103 1.95312 9.65532V10.9137C1.46831 10.694 0.910303 10.5842 0.481885 10.5903C0.212256 10.5938 -0.0034668 10.8153 4.88281e-05 11.085C0.00356445 11.3525 0.221484 11.5668 0.488184 11.5668C0.490332 11.5668 0.492529 11.5668 0.494727 11.5668C0.931348 11.5601 1.60908 11.7425 1.93965 12.044C1.94404 12.0481 1.94873 12.0519 1.95317 12.0559V13.6719H1.46484C0.655566 13.6719 0 14.3273 0 15.1367C0 15.8625 0.530762 16.4665 1.22451 16.5815C1.1104 16.8827 1.1022 17.2118 1.20801 17.5245C1.81318 19.3089 3.48618 20.5078 5.37109 20.5078H19.6289C21.5138 20.5078 23.1868 19.3089 23.7921 17.5242C23.8979 17.2118 23.8896 16.8829 23.7756 16.5817C24.4563 16.4698 25 15.8774 25 15.1367ZM2.01724 8.24092C2.53257 4.09956 6.07354 0.976562 10.2539 0.976562H14.7461C18.9265 0.976562 22.4674 4.09956 22.9828 8.24116C23.018 8.52334 22.7979 8.76904 22.5259 8.78726C22.5227 8.78745 22.5195 8.78774 22.5163 8.78804C22.5079 8.78877 22.4996 8.78906 22.4912 8.78906H2.50879C2.22119 8.78906 1.98047 8.53584 2.01724 8.24092ZM20.1776 11.3242C19.1046 10.3458 17.6629 10.3458 16.5899 11.3242C15.8893 11.9631 15.0188 11.9631 14.3183 11.3242C13.2453 10.3458 11.8035 10.3458 10.7305 11.3242C10.0299 11.9631 9.15947 11.9631 8.45889 11.3242C7.38589 10.3458 5.94414 10.3457 4.87105 11.3243C4.27725 11.8662 3.56587 11.9522 2.92969 11.571V9.76562H22.0703V11.5994C21.4473 11.946 20.7542 11.85 20.1776 11.3242ZM22.0703 12.6583V13.6719H2.92969V12.6437C3.1937 12.7351 3.46465 12.7808 3.73535 12.7807C4.36548 12.7807 4.99395 12.5342 5.52925 12.0458C6.22983 11.4069 7.10029 11.4069 7.80088 12.0458C8.87388 13.0244 10.3157 13.0243 11.3886 12.0458C12.0893 11.4069 12.9597 11.4069 13.6603 12.0458C14.7333 13.0244 16.175 13.0243 17.248 12.0458C17.9486 11.4069 18.819 11.407 19.5196 12.0458C20.2666 12.727 21.2043 12.9364 22.0703 12.6583ZM22.8672 17.2109C22.3965 18.5987 21.0951 19.5312 19.6289 19.5312H5.37109C3.90488 19.5312 2.60352 18.5987 2.13296 17.2112C2.03164 16.9119 2.29009 16.6016 2.61035 16.6016H22.3896C22.7111 16.6016 22.9679 16.9133 22.8672 17.2109ZM23.5352 15.625H1.46484C1.19561 15.625 0.976562 15.406 0.976562 15.1367C0.976562 14.8671 1.19526 14.6484 1.46484 14.6484H23.5352C23.8044 14.6484 24.0234 14.8675 24.0234 15.1367C24.0234 15.4063 23.8047 15.625 23.5352 15.625Z" fill="#616161"/>
</svg>
