<svg width="8" height="12" viewBox="0 0 8 12" fill="none" xmlns="http://www.w3.org/2000/svg">
<path d="M1.8125 0.75V6.19162C1.76788 6.20344 1.71494 6.2205 1.67556 6.23231C1.46381 6.2975 1.31681 6.36575 1.21094 6.4375C1.16175 6.46928 1.11587 6.50593 1.074 6.54688C1.03988 6.58275 0.992188 6.65625 0.992188 6.65625L0.9375 6.75206V7.75H1.375V11.25H2.25V7.75H5.75V11.25H6.625V7.75H7.0625V6.75206L7.00781 6.65625C7.00781 6.65625 6.95969 6.58275 6.92556 6.54688C6.88383 6.50595 6.8381 6.46931 6.78906 6.4375C6.68319 6.36575 6.53619 6.2975 6.324 6.23231C6.28463 6.2205 6.23212 6.20344 6.1875 6.19162V0.75H5.3125V1.1875H2.6875V0.75H1.8125ZM2.6875 2.0625H3.5625V6.01356C3.23088 6.02231 2.93338 6.03106 2.6875 6.05469V2.0625ZM4.4375 2.0625H5.3125V6.05469C5.06619 6.03062 4.76912 6.02231 4.4375 6.01356V2.0625Z" fill="black"/>
</svg>
