<svg width="18" height="18" viewBox="0 0 18 18" fill="none" xmlns="http://www.w3.org/2000/svg">
<path d="M2.12258 13.794V12.0821C2.12258 11.915 2.08363 11.8047 1.96356 11.6781L0.751473 10.4579C-0.246431 9.46001 -0.254543 8.53188 0.751473 7.53397L1.96356 6.31377C2.08201 6.19532 2.12258 6.07687 2.12258 5.91786V4.19789C2.12258 2.77162 2.77973 2.12258 4.19789 2.12258H5.91786C6.07687 2.12258 6.19532 2.08363 6.31377 1.96356L7.53397 0.751473C8.53188 -0.246431 9.46001 -0.254543 10.4579 0.751473L11.6781 1.96356C11.8047 2.08201 11.915 2.12258 12.0821 2.12258H13.794C15.2203 2.12258 15.8693 2.78785 15.8693 4.19789V5.91786C15.8693 6.07687 15.9164 6.19532 16.0364 6.31377L17.2485 7.53397C18.2464 8.53188 18.2545 9.46001 17.2485 10.4579L16.0364 11.6781C15.918 11.8047 15.8693 11.915 15.8693 12.0821V13.794C15.8693 15.2203 15.2122 15.8693 13.794 15.8693H12.0821C11.915 15.8693 11.8047 15.9164 11.6781 16.0364L10.4579 17.2485C9.46001 18.2464 8.53188 18.2545 7.53397 17.2485L6.31377 16.0364C6.19532 15.918 6.07687 15.8693 5.91786 15.8693H4.19789C2.77973 15.8693 2.12258 15.2122 2.12258 13.794ZM8.77851 12.4878L12.5024 6.6172C12.5981 6.45818 12.7004 6.27645 12.7004 6.09472C12.7004 5.72963 12.3758 5.49273 12.0351 5.49273C11.8209 5.49273 11.6148 5.61118 11.4639 5.85782L8.08079 11.2936L6.47279 9.21824C6.27483 8.957 6.10121 8.87749 5.87891 8.87749C5.51383 8.87749 5.23636 9.17118 5.23636 9.53465C5.23636 9.70827 5.30776 9.89162 5.42621 10.049L7.41552 12.4894C7.62159 12.7669 7.84389 12.8691 8.11325 12.8691C8.3826 12.8691 8.61301 12.7425 8.77851 12.4894V12.4878Z" fill="#3B413D"/>
</svg>
