<svg width="24" height="21" viewBox="0 0 24 21" fill="none" xmlns="http://www.w3.org/2000/svg">
<g filter="url(#filter0_d_25_591)">
<path d="M14 6C13.7167 6 13.4793 5.904 13.288 5.712C13.0967 5.52 13.0007 5.28267 13 5V1C13 0.716667 13.096 0.479333 13.288 0.288C13.48 0.0966668 13.7173 0.000666667 14 0H20C20.2833 0 20.521 0.0960001 20.713 0.288C20.905 0.48 21.0007 0.717333 21 1V5C21 5.28333 20.904 5.521 20.712 5.713C20.52 5.905 20.2827 6.00067 20 6H14ZM4 10C3.71667 10 3.47933 9.904 3.288 9.712C3.09667 9.52 3.00067 9.28267 3 9V1C3 0.716667 3.096 0.479333 3.288 0.288C3.48 0.0966668 3.71733 0.000666667 4 0H10C10.2833 0 10.521 0.0960001 10.713 0.288C10.905 0.48 11.0007 0.717333 11 1V9C11 9.28333 10.904 9.521 10.712 9.713C10.52 9.905 10.2827 10.0007 10 10H4ZM14 18C13.7167 18 13.4793 17.904 13.288 17.712C13.0967 17.52 13.0007 17.2827 13 17V9C13 8.71667 13.096 8.47933 13.288 8.288C13.48 8.09667 13.7173 8.00067 14 8H20C20.2833 8 20.521 8.096 20.713 8.288C20.905 8.48 21.0007 8.71733 21 9V17C21 17.2833 20.904 17.521 20.712 17.713C20.52 17.905 20.2827 18.0007 20 18H14ZM4 18C3.71667 18 3.47933 17.904 3.288 17.712C3.09667 17.52 3.00067 17.2827 3 17V13C3 12.7167 3.096 12.4793 3.288 12.288C3.48 12.0967 3.71733 12.0007 4 12H10C10.2833 12 10.521 12.096 10.713 12.288C10.905 12.48 11.0007 12.7173 11 13V17C11 17.2833 10.904 17.521 10.712 17.713C10.52 17.905 10.2827 18.0007 10 18H4Z" fill="black"/>
</g>
<defs>
<filter id="filter0_d_25_591" x="-1" y="0" width="26" height="26" filterUnits="userSpaceOnUse" color-interpolation-filters="sRGB">
<feFlood flood-opacity="0" result="BackgroundImageFix"/>
<feColorMatrix in="SourceAlpha" type="matrix" values="0 0 0 0 0 0 0 0 0 0 0 0 0 0 0 0 0 0 127 0" result="hardAlpha"/>
<feOffset dy="4"/>
<feGaussianBlur stdDeviation="2"/>
<feComposite in2="hardAlpha" operator="out"/>
<feColorMatrix type="matrix" values="0 0 0 0 0 0 0 0 0 0 0 0 0 0 0 0 0 0 0.25 0"/>
<feBlend mode="normal" in2="BackgroundImageFix" result="effect1_dropShadow_25_591"/>
<feBlend mode="normal" in="SourceGraphic" in2="effect1_dropShadow_25_591" result="shape"/>
</filter>
</defs>
</svg>
