<svg width="16" height="26" viewBox="0 0 16 26" fill="none" xmlns="http://www.w3.org/2000/svg">
<path d="M14.8957 8.83436H14.422L13.7467 6.87397C13.6955 6.72545 13.5557 6.62577 13.3986 6.62577H9.10429V3.63745L13.5432 2.10822C13.7354 2.04201 13.8375 1.83249 13.7713 1.6403L13.2917 0.248198C13.26 0.155879 13.1927 0.0800018 13.105 0.0372042C13.0172 -0.00554423 12.9162 -0.0117283 12.8238 0.0200754L8.13674 1.6348C7.39441 1.89051 6.89571 2.58979 6.89571 3.37492V6.62577H2.60137C2.44432 6.62577 2.30449 6.72545 2.25335 6.87397L1.57796 8.83436H1.10429C0.495411 8.83436 0 9.32977 0 9.93865C0 10.5475 0.495411 11.0429 1.10429 11.0429H1.50945L2.97153 24.7996C2.99141 24.9868 3.14935 25.1288 3.33757 25.1288H12.6624C12.8507 25.1288 13.0086 24.9868 13.0285 24.7996L14.4906 11.0429H14.8957C15.5046 11.0429 16 10.5476 16 9.93865C16 9.32972 15.5046 8.83436 14.8957 8.83436ZM7.6319 3.37492C7.6319 2.90386 7.93114 2.48432 8.37654 2.33085L12.7156 0.835977L12.9554 1.53203L8.61629 3.0269C8.46783 3.07804 8.3681 3.21782 8.3681 3.37492V6.62577H7.6319V3.37492ZM12.3314 24.3926H3.66861L2.24977 11.0429H13.7502L12.3314 24.3926ZM14.8957 10.3068H1.10429C0.901301 10.3068 0.736196 10.1416 0.736196 9.93865C0.736196 9.73566 0.901301 9.57055 1.10429 9.57055H1.84049C1.99755 9.57055 2.13737 9.47087 2.18852 9.32236L2.86385 7.36197H13.1361L13.6433 8.83436H3.39779C3.19445 8.83436 3.02969 8.99917 3.02969 9.20246C3.02969 9.40575 3.19445 9.57055 3.39779 9.57055H14.1509C14.1566 9.5707 14.1624 9.5707 14.168 9.57055H14.8957C15.0987 9.57055 15.2638 9.73566 15.2638 9.93865C15.2638 10.1416 15.0987 10.3068 14.8957 10.3068Z" fill="#616161"/>
</svg>
