<svg width="13" height="21" viewBox="0 0 13 21" fill="none" xmlns="http://www.w3.org/2000/svg">
<path d="M4.00983 20.0144C3.2671 20.0144 2.76011 19.6292 2.78546 18.9493L2.97051 9.40976C2.97051 9.10345 2.83363 8.88765 2.54972 8.77626C1.32535 8.27736 0.831043 7.75524 0.904555 6.27012L1.15298 1.08149C1.17579 0.707887 1.39886 0.503683 1.7715 0.503683C2.14413 0.503683 2.35199 0.719489 2.35199 1.09309L2.27848 6.15874C2.27848 6.45344 2.50155 6.64605 2.78546 6.64605C3.1074 6.64605 3.31779 6.45344 3.31779 6.18195L3.40398 0.958501C3.40398 0.596503 3.6524 0.403901 4.00983 0.403901C4.36725 0.403901 4.62835 0.596503 4.62835 0.958501L4.70186 6.18195C4.70186 6.45344 4.92493 6.64605 5.23419 6.64605C5.54345 6.64605 5.74117 6.45344 5.74117 6.15874L5.68034 1.09309C5.68034 0.719489 5.90341 0.503683 6.26083 0.503683C6.61825 0.503683 6.84133 0.707887 6.854 1.08149L7.13791 6.27012C7.21142 7.75524 6.70444 8.27504 5.49275 8.77394C5.19617 8.88765 5.07196 9.10345 5.07196 9.40744L5.24433 18.947C5.26968 19.6269 4.7627 20.0121 4.00729 20.0121L4.00983 20.0144ZM10.5702 12.8998C10.5829 12.5494 10.4333 12.2988 10.0987 12.083L9.61706 11.7535C9.14556 11.4472 8.91235 11.0388 8.91235 10.4285V9.83905C8.91235 6.38383 9.87815 2.85899 11.3636 0.932975C11.6475 0.559375 11.8833 0.401581 12.2179 0.401581C12.5525 0.401581 12.8491 0.570977 12.8491 1.00259V18.9841C12.8491 19.6524 12.3674 20.0144 11.5867 20.0144C10.8059 20.0144 10.3243 19.6292 10.3496 18.8704L10.5727 12.8998H10.5702Z" fill="#007AFF"/>
</svg>
