<svg width="31" height="31" viewBox="0 0 31 31" fill="none" xmlns="http://www.w3.org/2000/svg">
<g filter="url(#filter0_d_34_1315)">
<path d="M26.9233 13.1788C26.851 13.0824 26.7375 13.0256 26.6169 13.0256H25.7001L26.9693 7.33007C27.0157 7.12075 26.9749 6.90159 26.8563 6.72298C26.7442 6.55245 26.5668 6.43576 26.3658 6.40047L24.8871 6.14005C24.8216 6.12972 24.7549 6.12851 24.6891 6.13641L24.6888 2.74637C24.6971 2.52223 24.6145 2.3042 24.4598 2.14171C24.3218 1.99682 24.1305 1.9147 23.9304 1.91443H22.4326C22.0109 1.92565 21.6747 2.2703 21.6738 2.69213L21.6456 3.63066L20.9521 3.46831C20.7478 3.42049 20.5328 3.4587 20.3575 3.57396C20.1822 3.68926 20.0619 3.87146 20.0249 4.078L19.9316 4.57917C19.885 4.56174 19.8368 4.54877 19.7877 4.54046L18.1452 4.26676L18.1608 3.85988C18.1691 3.65163 18.0921 3.44896 17.9476 3.29872C17.8032 3.14849 17.6037 3.06358 17.3953 3.06367H17.0233L17.503 1.4701C17.566 1.27169 17.5463 1.05626 17.4484 0.872578C17.3551 0.69307 17.1936 0.558596 17.0002 0.499373L15.5379 0.0361451C15.3424 -0.0263101 15.13 -0.00727268 14.9487 0.0889469C14.7674 0.185167 14.6326 0.350486 14.5748 0.547416L13.625 3.70735L13.5885 2.65415C13.5754 2.2404 13.2351 1.91241 12.8211 1.91443H11.281C11.073 1.91411 10.8737 1.99839 10.729 2.1479C10.5842 2.29742 10.5065 2.49933 10.5136 2.70731L10.5939 5.02408L8.85979 5.30887C8.46485 5.37339 8.18553 5.73016 8.21768 6.12905H7.06462C6.64162 6.12954 6.29881 6.47235 6.29832 6.89535V9.25554L5.89458 8.95961C5.73564 8.84008 5.53507 8.78993 5.33859 8.8206C5.1365 8.8514 4.95546 8.96279 4.83684 9.12928L4.15028 10.094C3.90347 10.4358 3.96691 10.9109 4.29472 11.1761L6.29836 12.7148V13.0256H4.39462C4.27407 13.0256 4.16052 13.0824 4.08814 13.1788C4.01581 13.2753 3.99304 13.4002 4.02681 13.5159L6.02448 20.3644C6.48312 21.9149 7.90451 22.981 9.52138 22.9873H21.4905C23.1074 22.981 24.5287 21.9149 24.9874 20.3644L26.9847 13.5159C27.0184 13.4002 26.9957 13.2753 26.9233 13.1788ZM24.6795 7.20175H24.6892V7.16205L24.7543 6.89477L26.2214 7.1638L24.9154 13.0256H23.2611L24.6795 7.20175ZM22.4397 2.717C22.4405 2.69626 22.4472 2.68315 22.4401 2.68073L23.9091 2.67457C23.9124 2.67736 23.924 2.69348 23.9229 2.73443V7.16282L23.0002 10.8953L22.2152 9.94151L23.09 4.71413C23.1592 4.31305 22.9048 3.92727 22.5089 3.8328L22.4071 3.80896L22.4397 2.717ZM20.778 4.21463L21.9267 4.48268L22.3342 4.58689L21.5695 9.15694L20.7335 8.14122C20.5935 7.97226 20.3895 7.86904 20.1704 7.85611C20.147 7.85463 20.1241 7.8584 20.1009 7.85898L20.778 4.21463ZM20.1027 8.6273L20.1416 8.62784L22.7709 11.8227L22.4735 13.0256H21.9429L19.6567 10.2964L19.0716 9.61172L20.1027 8.6273ZM20.9204 12.9985L20.916 13.0256H19.3811L19.5997 11.4224L20.9204 12.9985ZM18.1155 5.03862L19.6616 5.2963L19.2902 8.02632L19.2855 8.05129L19.2868 8.05151L19.2819 8.0873L19.2792 8.09821H19.2788L19.2777 8.10346L19.2743 8.11841L19.2182 8.41241L18.5425 9.0574C18.2492 9.33092 18.2237 9.78697 18.4844 10.0916L18.8316 10.5059L18.3563 13.0256H17.8083L18.1155 5.03862ZM17.3953 3.82997L17.0417 13.0254H15.5087L15.8623 3.82997H17.3953ZM15.3052 0.766121L16.7704 1.24448L16.2225 3.06367H15.8627C15.4505 3.06264 15.1117 3.38852 15.0968 3.80038L15.0809 4.21328H14.2729L15.3052 0.766121ZM15.0514 4.97958L14.742 13.0256H13.948L13.6691 4.97958H15.0514ZM12.8211 2.68073L13.1815 13.0256H11.6377L11.2811 2.68073H12.8211ZM10.6207 5.79621L10.8712 13.0255H9.6872L8.98412 6.06498L10.6207 5.79621ZM7.06462 6.89531H8.29428L8.7136 11.026L7.06462 9.81723V6.89531ZM4.77142 10.5426L5.43966 9.57598L8.81776 12.0524L8.91659 13.0256H7.96247L4.77142 10.5426ZM24.2518 20.15C23.8897 21.3744 22.7672 22.2162 21.4905 22.221H9.52138C8.24462 22.2161 7.12222 21.3744 6.76006 20.15L4.90535 13.7919H26.1061L24.2518 20.15Z" fill="#616161"/>
<path d="M8.24709 19.4454C8.46476 20.1803 9.13857 20.6855 9.905 20.6884H12.0459C12.2576 20.6884 12.4291 20.5168 12.4291 20.3053C12.4291 20.0937 12.2576 19.9221 12.0459 19.9221H9.905C9.48129 19.9214 9.10786 19.6439 8.98492 19.2384L8.21337 16.3741C8.15828 16.1698 7.94797 16.0488 7.74359 16.1038C7.5392 16.1589 7.4182 16.3692 7.47325 16.5736L8.24709 19.4454Z" fill="#616161"/>
<path d="M13.5784 20.6884H13.9616C14.1732 20.6884 14.3447 20.5169 14.3447 20.3053C14.3447 20.0937 14.1732 19.9222 13.9616 19.9222H13.5784C13.3668 19.9222 13.1953 20.0937 13.1953 20.3053C13.1953 20.5169 13.3668 20.6884 13.5784 20.6884Z" fill="#616161"/>
</g>
<defs>
<filter id="filter0_d_34_1315" x="0" y="0" width="31" height="30.9873" filterUnits="userSpaceOnUse" color-interpolation-filters="sRGB">
<feFlood flood-opacity="0" result="BackgroundImageFix"/>
<feColorMatrix in="SourceAlpha" type="matrix" values="0 0 0 0 0 0 0 0 0 0 0 0 0 0 0 0 0 0 127 0" result="hardAlpha"/>
<feOffset dy="4"/>
<feGaussianBlur stdDeviation="2"/>
<feComposite in2="hardAlpha" operator="out"/>
<feColorMatrix type="matrix" values="0 0 0 0 0 0 0 0 0 0 0 0 0 0 0 0 0 0 0.25 0"/>
<feBlend mode="normal" in2="BackgroundImageFix" result="effect1_dropShadow_34_1315"/>
<feBlend mode="normal" in="SourceGraphic" in2="effect1_dropShadow_34_1315" result="shape"/>
</filter>
</defs>
</svg>
