<svg width="76" height="55" viewBox="0 0 76 55" fill="none" xmlns="http://www.w3.org/2000/svg">
<rect width="76" height="55" rx="27.5" fill="#E0EFFF"/>
<path d="M47.8435 22.375C47.8435 22.748 47.6954 23.1056 47.4316 23.3694C47.1679 23.6331 46.8102 23.7812 46.4373 23.7812H43.156C43.1539 25.7697 42.363 27.6761 40.9569 29.0822C39.5509 30.4882 37.6445 31.2791 35.656 31.2812H35.0701L42.6873 38.2094C42.8265 38.3329 42.9398 38.4828 43.0206 38.6504C43.1015 38.818 43.1483 39 43.1583 39.1858C43.1683 39.3716 43.1413 39.5576 43.0789 39.7329C43.0165 39.9082 42.9199 40.0694 42.7948 40.2071C42.6696 40.3448 42.5184 40.4563 42.3498 40.5352C42.1812 40.614 41.9987 40.6586 41.8128 40.6664C41.6268 40.6741 41.4412 40.6449 41.2667 40.5804C41.0921 40.5159 40.9321 40.4174 40.7959 40.2906L30.4834 30.9156C30.2728 30.7243 30.1253 30.4735 30.0602 30.1965C29.9951 29.9195 30.0156 29.6293 30.119 29.3642C30.2223 29.0991 30.4037 28.8716 30.639 28.7117C30.8744 28.5518 31.1527 28.4671 31.4373 28.4688H35.656C36.8992 28.4688 38.0915 27.9749 38.9706 27.0958C39.8497 26.2167 40.3435 25.0245 40.3435 23.7812H31.4373C31.0643 23.7812 30.7066 23.6331 30.4429 23.3694C30.1792 23.1056 30.031 22.748 30.031 22.375C30.031 22.002 30.1792 21.6444 30.4429 21.3806C30.7066 21.1169 31.0643 20.9688 31.4373 20.9688H39.406C38.9694 20.3866 38.4032 19.9141 37.7523 19.5886C37.1015 19.2632 36.3837 19.0938 35.656 19.0938H31.4373C31.0643 19.0938 30.7066 18.9456 30.4429 18.6819C30.1792 18.4181 30.031 18.0605 30.031 17.6875C30.031 17.3145 30.1792 16.9569 30.4429 16.6931C30.7066 16.4294 31.0643 16.2812 31.4373 16.2812H46.4373C46.8102 16.2812 47.1679 16.4294 47.4316 16.6931C47.6954 16.9569 47.8435 17.3145 47.8435 17.6875C47.8435 18.0605 47.6954 18.4181 47.4316 18.6819C47.1679 18.9456 46.8102 19.0938 46.4373 19.0938H41.5049C41.9612 19.6619 42.3323 20.2936 42.6064 20.9688H46.4373C46.8102 20.9688 47.1679 21.1169 47.4316 21.3806C47.6954 21.6444 47.8435 22.002 47.8435 22.375Z" fill="black"/>
</svg>
