<svg width="27" height="27" viewBox="0 0 27 27" fill="none" xmlns="http://www.w3.org/2000/svg">
<g clip-path="url(#clip0_34_1279)">
<path d="M23.046 3.95407C20.4961 1.40423 17.106 0 13.5 0C9.89401 0 6.50391 1.40423 3.95407 3.95407C1.40423 6.50385 0 9.89401 0 13.5C0 17.106 1.40423 20.4961 3.95407 23.0459C6.50391 25.5958 9.89407 27 13.5 27C17.1059 27 20.4961 25.5958 23.0459 23.0459C25.5958 20.4961 27 17.106 27 13.5C27 9.89401 25.5958 6.50385 23.046 3.95407ZM22.4274 22.4274C20.0429 24.812 16.8724 26.1253 13.5 26.1253C10.1276 26.1253 6.95719 24.812 4.57256 22.4274C2.18793 20.0427 0.87473 16.8723 0.87473 13.5C0.87473 10.1277 2.18799 6.95719 4.57262 4.57256C6.95719 2.18799 10.1277 0.87473 13.5 0.87473C16.8723 0.87473 20.0428 2.18799 22.4274 4.57256C24.812 6.95719 26.1253 10.1277 26.1253 13.5C26.1253 16.8723 24.812 20.0428 22.4274 22.4274Z" fill="#9C9C9C"/>
<path d="M24.7336 12.0968C24.6099 11.8234 24.4932 11.5651 24.4453 11.3229C24.3946 11.0669 24.4036 10.7757 24.4131 10.4675C24.4277 9.99624 24.4428 9.50896 24.2511 9.04675C24.0556 8.57538 23.6967 8.2392 23.3496 7.91415C23.128 7.70666 22.9187 7.51066 22.7783 7.3009C22.6357 7.08782 22.5332 6.81735 22.4248 6.53108C22.2572 6.08859 22.0839 5.63104 21.7268 5.27386C21.3697 4.91674 20.9122 4.74343 20.4697 4.57577C20.1833 4.4673 19.9129 4.36484 19.6999 4.2222C19.49 4.08172 19.294 3.87243 19.0865 3.65083C18.7614 3.30368 18.4253 2.94475 17.9538 2.74927C17.4915 2.55753 17.0042 2.57258 16.5329 2.5871C16.2246 2.59666 15.9334 2.60564 15.6774 2.55497C15.4351 2.50703 15.1769 2.39029 14.9035 2.26666C14.4883 2.07888 14.0177 1.86609 13.5001 1.86609C12.9826 1.86609 12.512 2.07882 12.0968 2.2666C11.8234 2.39023 11.5652 2.50697 11.3229 2.55491C11.067 2.60553 10.7758 2.59655 10.4675 2.58704C9.99624 2.57246 9.50902 2.55748 9.04675 2.7491C8.57539 2.94457 8.2392 3.3035 7.91415 3.6506C7.70667 3.87214 7.51067 4.08143 7.30091 4.22185C7.08782 4.36449 6.81736 4.46695 6.53109 4.57536C6.08859 4.74296 5.63099 4.91627 5.27387 5.2734C4.91674 5.63052 4.74343 6.088 4.57577 6.5305C4.46731 6.81683 4.36485 7.08724 4.22221 7.30032C4.08173 7.51014 3.87243 7.70614 3.65084 7.91368C3.30368 8.23879 2.94475 8.57492 2.74928 9.04634C2.55754 9.50866 2.57253 9.99601 2.58711 10.4673C2.59661 10.7756 2.60559 11.0668 2.55492 11.3228C2.50698 11.565 2.39023 11.8233 2.2666 12.0967C2.079 12.5118 1.86621 12.9824 1.86621 13.5C1.86621 14.0175 2.07895 14.4881 2.26672 14.9033C2.39035 15.1767 2.5071 15.435 2.55503 15.6772C2.60565 15.9331 2.59667 16.2244 2.58716 16.5326C2.57258 17.0039 2.5576 17.4912 2.74922 17.9534C2.94469 18.4247 3.30363 18.7609 3.65066 19.086C3.87226 19.2935 4.08149 19.4895 4.22192 19.6992C4.36456 19.9123 4.46702 20.1828 4.57548 20.4691C4.74308 20.9116 4.91639 21.3691 5.27346 21.7263C5.63052 22.0834 6.08812 22.2567 6.53056 22.4243C6.81689 22.5328 7.0873 22.6353 7.30038 22.7779C7.5102 22.9184 7.70614 23.1277 7.91369 23.3492C8.23879 23.6964 8.57492 24.0553 9.04634 24.2508C9.50861 24.4425 9.99595 24.4275 10.4673 24.413C10.7756 24.4035 11.0668 24.3945 11.3229 24.4451C11.5651 24.4931 11.8233 24.6098 12.0968 24.7335C12.512 24.9212 12.9826 25.134 13.5002 25.134C14.0177 25.134 14.4882 24.9212 14.9034 24.7335C15.1768 24.6098 15.4351 24.4931 15.6773 24.4451C15.9333 24.3945 16.2245 24.4035 16.5327 24.413C17.0041 24.4276 17.4912 24.4426 17.9534 24.251C18.4248 24.0555 18.761 23.6966 19.086 23.3495C19.2935 23.1279 19.4895 22.9187 19.6993 22.7783C19.9124 22.6356 20.1828 22.5332 20.4692 22.4247C20.9116 22.2571 21.3692 22.0838 21.7263 21.7267C22.0834 21.3696 22.2568 20.9121 22.4244 20.4696C22.5329 20.1833 22.6353 19.9129 22.778 19.6998C22.9185 19.49 23.1277 19.294 23.3493 19.0865C23.6964 18.7614 24.0554 18.4253 24.2509 17.9538C24.4426 17.4915 24.4276 17.0042 24.4131 16.5329C24.4036 16.2245 24.3946 15.9333 24.4452 15.6774C24.4931 15.4351 24.6099 15.1769 24.7335 14.9035C24.9212 14.4882 25.134 14.0176 25.134 13.5001C25.134 12.9825 24.9213 12.512 24.7336 12.0968ZM23.9365 14.543C23.7979 14.8495 23.6546 15.1664 23.5871 15.5076C23.5172 15.861 23.5281 16.2162 23.5387 16.5597C23.5509 16.9559 23.5624 17.3302 23.4428 17.6187C23.3196 17.9158 23.0435 18.1743 22.7513 18.448C22.5035 18.68 22.2472 18.92 22.0511 19.2131C21.8527 19.5093 21.7275 19.84 21.6064 20.1597C21.4653 20.5321 21.332 20.8839 21.1078 21.1081C20.8835 21.3323 20.5318 21.4656 20.1593 21.6066C19.8395 21.7278 19.5089 21.853 19.2126 22.0513C18.9195 22.2475 18.6796 22.5037 18.4475 22.7516C18.1739 23.0438 17.9154 23.3198 17.6184 23.4429C17.33 23.5625 16.9559 23.551 16.5597 23.5387C16.2162 23.5281 15.861 23.5171 15.5075 23.587C15.1664 23.6545 14.8495 23.7978 14.543 23.9364C14.1759 24.1024 13.8291 24.2592 13.5001 24.2592C13.1711 24.2592 12.8243 24.1024 12.4571 23.9363C12.1506 23.7978 11.8337 23.6545 11.4926 23.587C11.2683 23.5426 11.0434 23.5308 10.8211 23.5308C10.6931 23.5308 10.5659 23.5347 10.4404 23.5386C10.044 23.5508 9.66985 23.5624 9.38142 23.4428C9.08437 23.3195 8.82585 23.0435 8.55212 22.7513C8.32009 22.5035 8.08012 22.2472 7.78702 22.051C7.49078 21.8527 7.16014 21.7274 6.84045 21.6063C6.46799 21.4652 6.11617 21.3319 5.89201 21.1077C5.66779 20.8835 5.53454 20.5317 5.39347 20.1592C5.27235 19.8395 5.14715 19.5089 4.94882 19.2126C4.75259 18.9195 4.49641 18.6795 4.24857 18.4475C3.95635 18.1738 3.68034 17.9153 3.55724 17.6183C3.43763 17.3299 3.44918 16.9558 3.46143 16.5596C3.47204 16.2161 3.483 15.8608 3.41308 15.5074C3.34561 15.1664 3.20233 14.8495 3.06372 14.5429C2.89775 14.1758 2.74094 13.829 2.74094 13.5C2.74094 13.171 2.89775 12.8242 3.06377 12.457C3.20233 12.1505 3.34567 11.8336 3.41314 11.4925C3.48306 11.139 3.4721 10.7838 3.46154 10.4403C3.44936 10.0441 3.43781 9.66985 3.55741 9.38136C3.68063 9.0843 3.95664 8.82579 4.24892 8.55206C4.49676 8.32002 4.75299 8.08005 4.94917 7.78696C5.14756 7.49066 5.27276 7.16007 5.39388 6.84033C5.53494 6.46787 5.66825 6.11611 5.89248 5.89189C6.1167 5.66767 6.46851 5.53447 6.84097 5.39335C7.16066 5.27229 7.49131 5.14703 7.78755 4.9487C8.08064 4.75246 8.32061 4.49629 8.55265 4.2485C8.82632 3.95629 9.08477 3.68028 9.38183 3.55712C9.67026 3.43757 10.0444 3.44918 10.4405 3.4613C10.784 3.47198 11.1393 3.48288 11.4927 3.41296C11.8338 3.34549 12.1507 3.20221 12.4573 3.06359C12.8244 2.89763 13.1712 2.74082 13.5001 2.74082C13.8291 2.74082 14.1759 2.89763 14.5431 3.06365C14.8496 3.20221 15.1665 3.34555 15.5076 3.41302C15.861 3.48294 16.2162 3.47198 16.5598 3.46142C16.9561 3.44918 17.3303 3.43763 17.6188 3.55729C17.9158 3.68051 18.1743 3.95658 18.448 4.2488C18.68 4.49664 18.9201 4.75287 19.2132 4.9491C19.5095 5.14749 19.84 5.2727 20.1598 5.39382C20.5322 5.53488 20.884 5.66819 21.1082 5.89241C21.3325 6.11664 21.4656 6.46845 21.6068 6.84091C21.7278 7.1606 21.8531 7.49124 22.0514 7.78749C22.2477 8.08058 22.5038 8.32055 22.7516 8.55258C23.0438 8.82626 23.3198 9.08471 23.443 9.38177C23.5625 9.67014 23.551 10.0443 23.5388 10.4405C23.5282 10.784 23.5172 11.1392 23.5872 11.4926C23.6546 11.8337 23.7979 12.1506 23.9365 12.4571C24.1025 12.8243 24.2593 13.1711 24.2593 13.5C24.2593 13.829 24.1025 14.1758 23.9365 14.543Z" fill="#9C9C9C"/>
<path d="M10.7012 9.73865C11.7141 9.73865 12.5381 8.9146 12.5381 7.90172C12.5381 6.88884 11.7141 6.06479 10.7012 6.06479C9.68825 6.06479 8.86426 6.88884 8.86426 7.90172C8.86426 8.9146 9.68831 9.73865 10.7012 9.73865ZM10.7012 6.93952C11.2317 6.93952 11.6634 7.37117 11.6634 7.90172C11.6634 8.43227 11.2317 8.86392 10.7012 8.86392C10.1706 8.86392 9.73899 8.43227 9.73899 7.90172C9.73899 7.37117 10.1706 6.93952 10.7012 6.93952Z" fill="#9C9C9C"/>
<path d="M20.4688 11.1674C20.4688 10.1545 19.6447 9.33046 18.6319 9.33046C17.619 9.33046 16.7949 10.1545 16.7949 11.1674C16.7949 12.1803 17.619 13.0043 18.6319 13.0043C19.6447 13.0043 20.4688 12.1803 20.4688 11.1674ZM18.6319 12.1296C18.1013 12.1296 17.6697 11.6979 17.6697 11.1674C17.6697 10.6368 18.1013 10.2052 18.6319 10.2052C19.1624 10.2052 19.5941 10.6368 19.5941 11.1674C19.5941 11.6979 19.1625 12.1296 18.6319 12.1296Z" fill="#9C9C9C"/>
<path d="M15.833 17.7279C14.8201 17.7279 13.9961 18.5519 13.9961 19.5648C13.9961 20.5777 14.8201 21.4017 15.833 21.4017C16.8459 21.4017 17.67 20.5777 17.67 19.5648C17.67 18.5519 16.846 17.7279 15.833 17.7279ZM15.833 20.527C15.3025 20.527 14.8708 20.0953 14.8708 19.5648C14.8708 19.0342 15.3025 18.6026 15.833 18.6026C16.3636 18.6026 16.7952 19.0342 16.7952 19.5648C16.7952 20.0953 16.3636 20.527 15.833 20.527Z" fill="#9C9C9C"/>
<path d="M10.6719 15.3661C10.6719 14.3532 9.84786 13.5292 8.83498 13.5292C7.82204 13.5292 6.99805 14.3532 6.99805 15.3661C6.99805 16.379 7.8221 17.203 8.83498 17.203C9.84792 17.203 10.6719 16.379 10.6719 15.3661ZM8.83498 16.3283C8.30437 16.3283 7.87278 15.8966 7.87278 15.3661C7.87278 14.8355 8.30443 14.4039 8.83498 14.4039C9.36553 14.4039 9.79718 14.8355 9.79718 15.3661C9.79718 15.8966 9.36559 16.3283 8.83498 16.3283Z" fill="#9C9C9C"/>
<path d="M15.3365 14.433C15.3365 13.6774 14.7218 13.0626 13.9661 13.0626C13.2105 13.0626 12.5957 13.6774 12.5957 14.433C12.5957 15.1887 13.2105 15.8035 13.9661 15.8035C14.7218 15.8035 15.3365 15.1887 15.3365 14.433ZM13.9661 14.9287C13.6928 14.9287 13.4704 14.7064 13.4704 14.433C13.4704 14.1597 13.6928 13.9374 13.9661 13.9374C14.2394 13.9374 14.4618 14.1597 14.4618 14.433C14.4618 14.7064 14.2395 14.9287 13.9661 14.9287Z" fill="#9C9C9C"/>
<path d="M15.8323 8.33909C16.588 8.33909 17.2027 7.72433 17.2027 6.96868C17.2027 6.21303 16.588 5.59827 15.8323 5.59827C15.0767 5.59827 14.4619 6.21303 14.4619 6.96868C14.4619 7.72433 15.0767 8.33909 15.8323 8.33909ZM15.8323 6.473C16.1056 6.473 16.328 6.69535 16.328 6.96868C16.328 7.242 16.1056 7.46436 15.8323 7.46436C15.559 7.46436 15.3366 7.242 15.3366 6.96868C15.3366 6.69535 15.559 6.473 15.8323 6.473Z" fill="#9C9C9C"/>
<path d="M20.0315 14.4622C19.2759 14.4622 18.6611 15.077 18.6611 15.8326C18.6611 16.5883 19.2759 17.203 20.0315 17.203C20.7872 17.203 21.402 16.5883 21.402 15.8326C21.402 15.077 20.7872 14.4622 20.0315 14.4622ZM20.0315 16.3283C19.7582 16.3283 19.5359 16.1059 19.5359 15.8326C19.5359 15.5593 19.7582 15.3369 20.0315 15.3369C20.3049 15.3369 20.5272 15.5593 20.5272 15.8326C20.5272 16.1059 20.3049 16.3283 20.0315 16.3283Z" fill="#9C9C9C"/>
<path d="M10.7005 18.6609C9.94484 18.6609 9.33008 19.2757 9.33008 20.0313C9.33008 20.787 9.94484 21.4017 10.7005 21.4017C11.4561 21.4017 12.0709 20.787 12.0709 20.0313C12.0709 19.2757 11.4561 18.6609 10.7005 18.6609ZM10.7005 20.527C10.4272 20.527 10.2048 20.3046 10.2048 20.0313C10.2048 19.758 10.4272 19.5356 10.7005 19.5356C10.9738 19.5356 11.1962 19.758 11.1962 20.0313C11.1962 20.3046 10.9739 20.527 10.7005 20.527Z" fill="#9C9C9C"/>
<path d="M6.96904 12.0713C7.72469 12.0713 8.33945 11.4565 8.33945 10.7009C8.33945 9.94522 7.72469 9.33046 6.96904 9.33046C6.21339 9.33046 5.59863 9.94522 5.59863 10.7009C5.59863 11.4565 6.21339 12.0713 6.96904 12.0713ZM6.96904 10.2052C7.24237 10.2052 7.46472 10.4275 7.46472 10.7009C7.46472 10.9742 7.24237 11.1966 6.96904 11.1966C6.69572 11.1966 6.47336 10.9742 6.47336 10.7009C6.47336 10.4275 6.69572 10.2052 6.96904 10.2052Z" fill="#9C9C9C"/>
<path d="M11.8293 10.7762C11.6134 10.6682 11.3506 10.7557 11.2426 10.9718C11.1345 11.1879 11.2221 11.4506 11.4382 11.5586L12.3712 12.0251C12.434 12.0565 12.5007 12.0713 12.5665 12.0713C12.7269 12.0713 12.8814 11.9827 12.958 11.8295C13.066 11.6134 12.9784 11.3507 12.7624 11.2427L11.8293 10.7762Z" fill="#9C9C9C"/>
<path d="M14.4334 10.6717C14.5454 10.6717 14.6573 10.629 14.7427 10.5436L15.2092 10.0771C15.38 9.90627 15.38 9.62933 15.2092 9.45858C15.0384 9.28777 14.7615 9.28777 14.5907 9.45858L14.1242 9.9251C13.9534 10.0959 13.9534 10.3728 14.1242 10.5436C14.2096 10.629 14.3215 10.6717 14.4334 10.6717Z" fill="#9C9C9C"/>
<path d="M12.8762 16.9229L12.4097 16.4564C12.2389 16.2856 11.9619 16.2856 11.7912 16.4564C11.6204 16.6272 11.6204 16.9042 11.7912 17.0749L12.2577 17.5414C12.3431 17.6268 12.4551 17.6695 12.567 17.6695C12.6789 17.6695 12.7908 17.6269 12.8762 17.5414C13.047 17.3707 13.047 17.0937 12.8762 16.9229Z" fill="#9C9C9C"/>
<path d="M17.0747 14.5903C16.9039 14.4195 16.627 14.4195 16.4562 14.5903C16.2854 14.7611 16.2854 15.0381 16.4562 15.2088L16.9228 15.6753C17.0081 15.7607 17.1201 15.8035 17.232 15.8035C17.3439 15.8035 17.4559 15.7608 17.5412 15.6753C17.712 15.5045 17.712 15.2276 17.5412 15.0568L17.0747 14.5903Z" fill="#9C9C9C"/>
<path d="M22.1681 12.1758L21.235 12.6423C21.019 12.7503 20.9314 13.013 21.0395 13.2291C21.1161 13.3823 21.2705 13.4709 21.431 13.4709C21.4967 13.4709 21.5634 13.456 21.6262 13.4246L22.5593 12.9581C22.7753 12.8501 22.8629 12.5874 22.7549 12.3714C22.6469 12.1553 22.3842 12.0677 22.1681 12.1758Z" fill="#9C9C9C"/>
<path d="M5.87816 13.6573C5.70735 13.4865 5.43041 13.4865 5.25967 13.6573L4.79314 14.1238C4.62234 14.2946 4.62234 14.5715 4.79314 14.7423C4.87852 14.8277 4.99048 14.8704 5.10239 14.8704C5.2143 14.8704 5.32626 14.8277 5.41164 14.7423L5.87816 14.2758C6.04896 14.105 6.04896 13.828 5.87816 13.6573Z" fill="#9C9C9C"/>
<path d="M12.7245 5.41183C12.8099 5.49727 12.9218 5.53995 13.0338 5.53995C13.1457 5.53995 13.2576 5.49727 13.343 5.41183C13.5138 5.24103 13.5138 4.96409 13.343 4.79334L12.8765 4.32682C12.7057 4.15601 12.4287 4.15601 12.258 4.32682C12.0872 4.49762 12.0872 4.77456 12.258 4.94531L12.7245 5.41183Z" fill="#9C9C9C"/>
<path d="M13.0331 20.9935C12.7915 20.9935 12.5957 21.1894 12.5957 21.4309V21.8974C12.5957 22.139 12.7915 22.3348 13.0331 22.3348C13.2746 22.3348 13.4704 22.139 13.4704 21.8974V21.4309C13.4704 21.1894 13.2747 20.9935 13.0331 20.9935Z" fill="#9C9C9C"/>
<path d="M19.2558 18.3225L18.7892 18.789C18.6184 18.9598 18.6184 19.2368 18.7892 19.4075C18.8746 19.4929 18.9866 19.5356 19.0985 19.5356C19.2104 19.5356 19.3224 19.493 19.4077 19.4075L19.8743 18.941C20.0451 18.7702 20.0451 18.4933 19.8743 18.3225C19.7035 18.1518 19.4266 18.1518 19.2558 18.3225Z" fill="#9C9C9C"/>
<path d="M7.27785 18.3225C7.10704 18.1517 6.8301 18.1517 6.65935 18.3225C6.48855 18.4933 6.48855 18.7702 6.65935 18.941L7.12588 19.4075C7.21125 19.4929 7.32322 19.5356 7.43512 19.5356C7.54703 19.5356 7.659 19.4929 7.74437 19.4075C7.91517 19.2367 7.91517 18.9598 7.74437 18.789L7.27785 18.3225Z" fill="#9C9C9C"/>
<path d="M18.789 7.27792C18.8743 7.3633 18.9863 7.40604 19.0982 7.40604C19.2101 7.40604 19.3221 7.36336 19.4075 7.27792C19.5783 7.10712 19.5783 6.83018 19.4075 6.65943L18.9409 6.19291C18.7701 6.0221 18.4932 6.0221 18.3224 6.19291C18.1516 6.36371 18.1516 6.64065 18.3224 6.8114L18.789 7.27792Z" fill="#9C9C9C"/>
<path d="M20.4979 9.27215C20.6128 9.27215 20.7259 9.22549 20.807 9.14385C20.8886 9.06279 20.9353 8.94966 20.9353 8.83478C20.9353 8.7199 20.8886 8.60677 20.807 8.52571C20.7259 8.44407 20.6128 8.39742 20.4979 8.39742C20.383 8.39742 20.2699 8.44407 20.1888 8.52571C20.1072 8.60677 20.0605 8.7199 20.0605 8.83478C20.0605 8.94966 20.1072 9.06279 20.1888 9.14385C20.2699 9.22549 20.383 9.27215 20.4979 9.27215Z" fill="#9C9C9C"/>
<path d="M15.057 11.7914C14.9754 11.8724 14.9287 11.9856 14.9287 12.1004C14.9287 12.2153 14.9754 12.3284 15.057 12.4095C15.1381 12.4911 15.2512 12.5378 15.3661 12.5378C15.481 12.5378 15.5941 12.4911 15.6751 12.4095C15.7568 12.3284 15.8034 12.2153 15.8034 12.1004C15.8034 11.9856 15.7568 11.8724 15.6751 11.7914C15.5941 11.7097 15.481 11.6631 15.3661 11.6631C15.2512 11.6631 15.1381 11.7097 15.057 11.7914Z" fill="#9C9C9C"/>
<path d="M9.45837 12.2579C9.37673 12.3389 9.33008 12.4515 9.33008 12.567C9.33008 12.6824 9.37673 12.795 9.45837 12.876C9.53943 12.9577 9.65256 13.0043 9.76744 13.0043C9.88232 13.0043 9.99546 12.9577 10.0765 12.876C10.1582 12.795 10.2048 12.6818 10.2048 12.567C10.2048 12.4521 10.1582 12.3389 10.0765 12.2579C9.99546 12.1762 9.88291 12.1296 9.76744 12.1296C9.65198 12.1296 9.53943 12.1762 9.45837 12.2579Z" fill="#9C9C9C"/>
<path d="M7.43541 7.87256C7.55029 7.87256 7.66343 7.82591 7.74448 7.74427C7.82612 7.66321 7.87278 7.55008 7.87278 7.4352C7.87278 7.31973 7.82612 7.20719 7.74448 7.12613C7.66343 7.04449 7.55029 6.99783 7.43541 6.99783C7.31995 6.99783 7.2074 7.04449 7.12634 7.12613C7.0447 7.20719 6.99805 7.31973 6.99805 7.4352C6.99805 7.55008 7.0447 7.66321 7.12634 7.74427C7.2074 7.82591 7.32053 7.87256 7.43541 7.87256Z" fill="#9C9C9C"/>
<path d="M14.5902 16.4566C14.5086 16.5376 14.4619 16.6508 14.4619 16.7657C14.4619 16.8805 14.5086 16.9937 14.5902 17.0747C14.6713 17.1564 14.7844 17.203 14.8993 17.203C15.0147 17.203 15.1273 17.1564 15.2083 17.0747C15.29 16.9937 15.3366 16.8805 15.3366 16.7657C15.3366 16.6508 15.29 16.5376 15.2083 16.4566C15.1273 16.3749 15.0147 16.3283 14.8993 16.3283C14.7844 16.3283 14.6713 16.3749 14.5902 16.4566Z" fill="#9C9C9C"/>
<path d="M14.8993 21.9266C14.7844 21.9266 14.6713 21.9732 14.5902 22.0549C14.5086 22.1359 14.4619 22.249 14.4619 22.3639C14.4619 22.4794 14.5086 22.5919 14.5902 22.673C14.6713 22.7546 14.7838 22.8013 14.8993 22.8013C15.0147 22.8013 15.1273 22.7546 15.2083 22.673C15.29 22.5919 15.3366 22.4794 15.3366 22.3639C15.3366 22.249 15.29 22.1359 15.2083 22.0549C15.1273 21.9732 15.0147 21.9266 14.8993 21.9266Z" fill="#9C9C9C"/>
<path d="M6.036 15.8618C5.92112 15.8618 5.80798 15.9084 5.72693 15.9901C5.64528 16.0711 5.59863 16.1843 5.59863 16.2991C5.59863 16.414 5.64528 16.5271 5.72693 16.6082C5.80798 16.6898 5.92112 16.7365 6.036 16.7365C6.15088 16.7365 6.26401 16.6898 6.34507 16.6082C6.42671 16.5271 6.47336 16.414 6.47336 16.2991C6.47336 16.1843 6.42671 16.0711 6.34507 15.9901C6.26401 15.9084 6.15088 15.8618 6.036 15.8618Z" fill="#9C9C9C"/>
</g>
<defs>
<clipPath id="clip0_34_1279">
<rect width="27" height="27" fill="white"/>
</clipPath>
</defs>
</svg>
