<svg width="17" height="17" viewBox="0 0 17 17" fill="none" xmlns="http://www.w3.org/2000/svg">
<path d="M7.08316 9.58988H1.21186C0.879155 9.58988 0.600464 9.47715 0.375789 9.2517C0.151114 9.02624 0.0383845 8.74755 0.0376017 8.41562C0.0368189 8.0837 0.149548 7.80501 0.375789 7.57955C0.602029 7.35409 0.88072 7.24136 1.21186 7.24136H7.08316V1.37006C7.08316 1.03736 7.19589 0.758667 7.42135 0.533992C7.64681 0.309317 7.9255 0.196588 8.25742 0.195805C8.58934 0.195022 8.86843 0.307751 9.09467 0.533992C9.32091 0.760233 9.43325 1.03892 9.43168 1.37006V7.24136H15.303C15.6357 7.24136 15.9148 7.35409 16.1402 7.57955C16.3657 7.80501 16.478 8.0837 16.4772 8.41562C16.4765 8.74755 16.3637 9.02663 16.1391 9.25287C15.9144 9.47911 15.6357 9.59145 15.303 9.58988H9.43168V15.4612C9.43168 15.7939 9.31895 16.073 9.09349 16.2984C8.86804 16.5239 8.58934 16.6362 8.25742 16.6354C7.9255 16.6347 7.64681 16.5219 7.42135 16.2973C7.19589 16.0726 7.08316 15.7939 7.08316 15.4612V9.58988Z" fill="black"/>
</svg>
