<svg width="10" height="8" viewBox="0 0 10 8" fill="none" xmlns="http://www.w3.org/2000/svg">
<path d="M4.35714 4.57143H1.14286C0.960716 4.57143 0.808145 4.51657 0.685145 4.40686C0.562145 4.29714 0.500431 4.16152 0.500002 4C0.499574 3.83848 0.561288 3.70286 0.685145 3.59314C0.809002 3.48343 0.961573 3.42857 1.14286 3.42857H4.35714V0.57143C4.35714 0.409526 4.41886 0.273907 4.54229 0.164573C4.66571 0.0552401 4.81829 0.000382923 5 1.97044e-06C5.18171 -0.000378982 5.3345 0.0544782 5.45836 0.164573C5.58221 0.274669 5.64371 0.410287 5.64286 0.57143V3.42857H8.85714C9.03928 3.42857 9.19207 3.48343 9.3155 3.59314C9.43893 3.70286 9.50043 3.83848 9.5 4C9.49957 4.16152 9.43786 4.29733 9.31486 4.40743C9.19186 4.51752 9.03928 4.57219 8.85714 4.57143H5.64286V7.42857C5.64286 7.59047 5.58114 7.72628 5.45771 7.836C5.33429 7.94571 5.18171 8.00038 5 8C4.81829 7.99962 4.66571 7.94476 4.54229 7.83543C4.41886 7.72609 4.35714 7.59047 4.35714 7.42857V4.57143Z" fill="black"/>
</svg>
