<svg width="9" height="15" viewBox="0 0 9 15" fill="none" xmlns="http://www.w3.org/2000/svg">
<path d="M0 13.3376V13.2072C0 11.2475 1.93858 9.25665 2.92269 8.23641C3.45427 7.67973 3.5017 7.0651 2.92269 6.45875C1.93858 5.43644 0 3.45598 0 1.48586V1.37411C0 0.465626 0.492055 0 1.31215 0H7.65156C8.47165 0 8.96371 0.465626 8.96371 1.37411V1.48586C8.96371 3.45598 7.02513 5.43644 6.04102 6.45668C5.46201 7.06303 5.50154 7.67973 6.04102 8.23434C7.02513 9.25458 8.96371 11.2454 8.96371 13.2052V13.3355C8.96371 14.244 8.47165 14.7096 7.65156 14.7096H1.31215C0.492055 14.7096 0 14.244 0 13.3355V13.3376ZM7.69108 2.96138C7.83534 2.68821 7.75827 2.46678 7.5073 2.46678H1.45641C1.19556 2.46678 1.11849 2.68821 1.27263 2.96138C1.71725 3.76019 3.37522 5.53785 3.89692 5.99312C4.32179 6.35735 4.63994 6.35735 5.05493 5.99312C5.58651 5.53785 7.24448 3.76019 7.68911 2.96138H7.69108Z" fill="#D87300"/>
</svg>
