<svg width="24" height="24" viewBox="0 0 24 24" fill="none" xmlns="http://www.w3.org/2000/svg">
<g clip-path="url(#clip0_34_1379)">
<path fill-rule="evenodd" clip-rule="evenodd" d="M10.6751 0.202652C8.56385 0.20332 6.50017 0.83 4.74502 2.00345C2.98988 3.17691 1.62209 4.84444 0.814596 6.7952C0.00710421 8.74597 -0.203826 10.8924 0.208475 12.963C0.620776 15.0336 1.63779 16.9355 3.13093 18.4282C4.62407 19.9209 6.52629 20.9373 8.59705 21.3489C10.6678 21.7606 12.8142 21.549 14.7647 20.7409C16.7152 19.9328 18.3823 18.5644 19.5552 16.8089C20.7281 15.0534 21.3541 12.9895 21.3541 10.8782C21.3528 8.04672 20.2271 5.33161 18.2246 3.32975C16.2221 1.32788 13.5067 0.203099 10.6751 0.202652ZM10.6751 1.89143C12.4526 1.89143 14.1901 2.41849 15.6679 3.40597C17.1458 4.39346 18.2977 5.79701 18.9779 7.43913C19.6581 9.08125 19.836 10.8882 19.4893 12.6315C19.1425 14.3747 18.2866 15.976 17.0298 17.2329C15.7729 18.4897 14.1716 19.3456 12.4284 19.6924C10.6851 20.0391 8.87816 19.8611 7.23603 19.181C5.59391 18.5008 4.19036 17.3489 3.20288 15.871C2.2154 14.3932 1.68833 12.6557 1.68833 10.8782C1.68945 8.49512 2.63663 6.20995 4.32174 4.52484C6.00685 2.83972 8.29203 1.89254 10.6751 1.89143Z" fill="#A8A8A8"/>
<path fill-rule="evenodd" clip-rule="evenodd" d="M23.7531 22.361L18.4537 17.0617C18.3758 16.981 18.2826 16.9167 18.1796 16.8724C18.0766 16.8282 17.9658 16.8049 17.8537 16.8039C17.7416 16.803 17.6304 16.8243 17.5266 16.8668C17.4228 16.9092 17.3286 16.9719 17.2493 17.0512C17.17 17.1305 17.1073 17.2248 17.0648 17.3285C17.0224 17.4323 17.001 17.5435 17.002 17.6556C17.003 17.7677 17.0263 17.8785 17.0705 17.9816C17.1148 18.0846 17.1791 18.1777 17.2597 18.2556L22.5591 23.5525C22.637 23.6331 22.7302 23.6974 22.8332 23.7417C22.9362 23.786 23.047 23.8093 23.1591 23.8102C23.2712 23.8112 23.3824 23.7898 23.4862 23.7474C23.59 23.7049 23.6843 23.6422 23.7635 23.5629C23.8428 23.4837 23.9055 23.3894 23.948 23.2856C23.9904 23.1818 24.0118 23.0706 24.0108 22.9585C24.0098 22.8464 23.9865 22.7356 23.9423 22.6326C23.898 22.5296 23.8337 22.4364 23.7531 22.3585V22.361Z" fill="#A8A8A8"/>
</g>
<defs>
<clipPath id="clip0_34_1379">
<rect width="24" height="24" fill="white"/>
</clipPath>
</defs>
</svg>
