<svg width="24" height="24" viewBox="0 0 24 24" fill="none" xmlns="http://www.w3.org/2000/svg">
<path d="M22.141 10.4219C21.7986 10.3034 21.4406 10.236 21.0785 10.222C21.0065 10.2164 20.9186 10.21 20.8474 10.2012C20.883 10.154 20.9246 10.102 20.9594 10.058C21.2597 9.72331 21.4761 9.322 21.5908 8.88719C21.8227 7.87431 21.8743 5.96811 20.5967 5.24834C20.3165 5.09805 20.0085 5.00671 19.6917 4.97996C19.3748 4.95321 19.0559 4.99161 18.7545 5.09279C17.9469 5.33523 17.2639 5.87941 16.8471 6.61231C16.392 7.49203 16.6359 8.38655 16.8323 9.10512C16.9522 9.54978 17.0682 9.96965 16.9246 10.1048C16.7579 10.2648 16.2604 10.1308 15.779 9.99924C15.6282 9.95925 15.4735 9.91926 15.3183 9.87928C15.0647 9.31871 14.6549 8.84311 14.138 8.50938C13.6211 8.17565 13.0189 7.99792 12.4037 7.99747C12.3925 7.99747 12.3821 7.99747 12.3709 7.99747C12.3321 7.69333 12.2558 7.39515 12.1437 7.10975C11.3464 5.08519 9.1075 4.06151 7.63876 4.49777C7.21841 4.62893 6.84225 4.87324 6.55151 5.20395C6.22429 4.73525 5.80052 4.34202 5.3087 4.05071C4.75028 3.75476 4.13682 3.57715 3.50665 3.52899C2.87649 3.48083 2.24317 3.56315 1.64625 3.7708C1.31325 3.86178 1.0036 4.02307 0.738179 4.24379C0.472755 4.46452 0.257714 4.73956 0.10754 5.0504C-0.265543 5.9949 0.427439 7.06696 1.68704 9.01315C1.8214 9.22108 1.96175 9.42462 2.10091 9.62935C1.76901 9.75231 1.44652 9.89932 1.13601 10.0692C0.708247 10.2755 0.363037 10.6207 0.156724 11.0485C0.0298837 11.4858 -0.0205737 11.9417 0.00757105 12.3961C0.0110636 15.4706 1.23394 18.4181 3.40792 20.5921C5.5819 22.7661 8.52944 23.9889 11.6039 23.9924H12.4037C15.4781 23.9889 18.4257 22.7661 20.5997 20.5921C22.7736 18.4181 23.9965 15.4706 24 12.3961C23.9935 12.3342 23.979 12.2734 23.9568 12.2153C23.602 11.4081 22.9525 10.7667 22.141 10.4219ZM15.5715 10.7754C16.2676 10.9641 16.9866 11.1593 17.4789 10.6854C17.9647 10.22 17.7812 9.54738 17.6036 8.89679C17.4261 8.24619 17.2457 7.584 17.5572 6.98179C17.8742 6.44185 18.3838 6.04186 18.9836 5.86214C19.1825 5.79385 19.3932 5.7663 19.603 5.78114C19.8128 5.79598 20.0175 5.8529 20.2048 5.94852C21.0097 6.40197 21.0085 7.84832 20.811 8.71004C20.7208 9.0256 20.558 9.31566 20.3356 9.55698C20.1164 9.83089 19.8437 10.1712 20.0432 10.5751C20.236 10.9601 20.6523 10.9913 21.0193 11.0185C21.3052 11.0279 21.5881 11.0791 21.8591 11.1705C22.2745 11.34 22.6315 11.6269 22.8864 11.9962H18.8816C18.9736 11.4912 19.0748 10.9857 19.1915 10.4883C19.4094 9.55938 19.675 8.62967 19.9805 7.72555L19.2231 7.46964C18.9092 8.39774 18.6365 9.35184 18.4126 10.3051C18.2818 10.863 18.169 11.43 18.0691 11.9962H15.4979C15.6055 11.5986 15.6306 11.1831 15.5715 10.7754ZM12.8035 9.59696V8.83321C13.2497 8.90936 13.6652 9.10995 14.0024 9.41188C14.3396 9.7138 14.5846 10.1048 14.7093 10.5399L13.8768 10.8174L14.1295 11.5771L14.7945 11.3556C14.7815 11.5742 14.7378 11.7898 14.6645 11.9962H10.1428C10.0507 11.7396 10.0039 11.469 10.0044 11.1965C10.0046 11.1163 10.0087 11.0363 10.0168 10.9565L10.6778 11.1769L10.9305 10.4171L10.2315 10.184C10.3959 9.83247 10.643 9.52601 10.9516 9.29078C11.2603 9.05554 11.6213 8.89855 12.0038 8.83321V9.59696H12.8035ZM7.86709 5.26593C8.95715 4.94123 10.7766 5.82295 11.4 7.40486C11.4889 7.63118 11.5493 7.86774 11.5795 8.10903C10.7656 8.32259 10.0694 8.84979 9.64312 9.57533C9.21688 10.3009 9.09532 11.1657 9.30504 11.9806L9.27185 11.9962H7.42763C7.59878 11.8183 7.76632 11.6363 7.91867 11.4444C8.86361 10.2294 9.44706 8.77268 9.60214 7.24131L8.80719 7.15414C8.66615 8.53561 8.14116 9.85002 7.29167 10.9485C7.26928 10.9769 7.24209 11.0017 7.2193 11.0285C7.80652 9.36368 7.72305 7.53571 6.98657 5.93132C7.19998 5.61974 7.50908 5.38616 7.86709 5.26593ZM0.851705 5.34591C0.962707 5.14448 1.11389 4.968 1.2959 4.82741C1.4779 4.68681 1.68684 4.5851 1.90977 4.52856C2.39838 4.36015 2.91607 4.29256 3.43154 4.32988C3.94702 4.3672 4.44957 4.50865 4.90882 4.7457C6.82182 5.85015 7.25928 9.03274 6.35917 11.0333C6.32758 11.1037 6.29039 11.1685 6.2544 11.2332C6.17722 10.9074 6.09045 10.5847 5.98488 10.27C5.33152 8.35475 4.19087 6.6426 2.67513 5.30192L2.1385 5.89453C3.55202 7.14349 4.61629 8.73872 5.22672 10.5235C5.38638 11.0046 5.51027 11.4968 5.59741 11.9962H4.90603C3.98154 10.9156 3.13044 9.77437 2.35843 8.58009C1.22239 6.82344 0.639372 5.88214 0.851705 5.34511V5.34591ZM0.887293 11.3712C1.01975 11.1031 1.24288 10.8906 1.51709 10.7714C1.85476 10.586 2.20849 10.4316 2.57396 10.3099C2.98903 10.8882 3.42023 11.4502 3.86755 11.9962H0.828512C0.786418 11.7866 0.806859 11.5693 0.887293 11.3712ZM12.4037 23.1927H11.6039C8.81063 23.1895 6.127 22.1052 4.11559 20.167C2.10417 18.2288 0.921154 15.5872 0.814516 12.796H23.1931C23.0864 15.5872 21.9034 18.2288 19.892 20.167C17.8806 22.1052 15.1969 23.1895 12.4037 23.1927Z" fill="#616161"/>
<path d="M12.8037 10.3967H12.0039V11.1964H12.8037V10.3967Z" fill="#616161"/>
<path d="M12.8037 4.79848V5.59823C12.8037 5.70428 12.8458 5.80599 12.9208 5.88098C12.9958 5.95597 13.0975 5.9981 13.2036 5.9981H14.8031C15.7572 5.99704 16.672 5.61754 17.3467 4.94285C18.0214 4.26816 18.4009 3.35339 18.4019 2.39924V1.59949C18.4019 1.49344 18.3598 1.39173 18.2848 1.31674C18.2098 1.24174 18.1081 1.19962 18.0021 1.19962H16.4026C15.4484 1.20067 14.5337 1.58018 13.859 2.25487C13.1843 2.92956 12.8048 3.84433 12.8037 4.79848ZM16.4026 1.99936H17.6022V2.39924C17.6013 3.14135 17.3062 3.85282 16.7814 4.37758C16.2567 4.90233 15.5452 5.19751 14.8031 5.19835H14.2832L16.2618 3.50249L15.742 2.89548L13.6067 4.7257C13.6256 3.99657 13.9284 3.30364 14.4506 2.79443C14.9729 2.28521 15.6732 1.99995 16.4026 1.99936Z" fill="#616161"/>
<path d="M9.20508 2.39924C9.20508 2.6365 9.27543 2.86843 9.40725 3.06571C9.53907 3.26299 9.72642 3.41675 9.94562 3.50754C10.1648 3.59834 10.406 3.6221 10.6387 3.57581C10.8714 3.52952 11.0852 3.41527 11.253 3.2475C11.4207 3.07973 11.535 2.86598 11.5813 2.63327C11.6276 2.40057 11.6038 2.15936 11.513 1.94016C11.4222 1.72096 11.2685 1.5336 11.0712 1.40179C10.8739 1.26997 10.642 1.19962 10.4047 1.19962C10.0865 1.19962 9.78141 1.326 9.55644 1.55098C9.33147 1.77595 9.20508 2.08108 9.20508 2.39924ZM10.8046 2.39924C10.8046 2.47832 10.7811 2.55564 10.7372 2.6214C10.6932 2.68715 10.6308 2.73841 10.5577 2.76867C10.4847 2.79894 10.4043 2.80686 10.3267 2.79143C10.2491 2.776 10.1779 2.73791 10.1219 2.68199C10.066 2.62607 10.0279 2.55482 10.0125 2.47725C9.99708 2.39968 10.005 2.31928 10.0353 2.24621C10.0655 2.17314 10.1168 2.11069 10.1825 2.06675C10.2483 2.02282 10.3256 1.99936 10.4047 1.99936C10.5108 1.99936 10.6125 2.04149 10.6875 2.11648C10.7624 2.19147 10.8046 2.29318 10.8046 2.39924Z" fill="#616161"/>
<path d="M4.00586 1.19962C4.00586 1.43688 4.07622 1.66882 4.20803 1.8661C4.33985 2.06337 4.5272 2.21713 4.74641 2.30793C4.96561 2.39872 5.20681 2.42248 5.43952 2.37619C5.67222 2.3299 5.88597 2.21565 6.05374 2.04788C6.22151 1.88011 6.33576 1.66636 6.38205 1.43366C6.42834 1.20095 6.40458 0.959748 6.31379 0.740546C6.22299 0.521344 6.06923 0.333989 5.87195 0.202173C5.67468 0.0703566 5.44274 0 5.20548 0C4.88732 0 4.58219 0.126388 4.35722 0.351361C4.13225 0.576334 4.00586 0.881462 4.00586 1.19962ZM5.60535 1.19962C5.60535 1.27871 5.5819 1.35602 5.53796 1.42178C5.49403 1.48754 5.43157 1.53879 5.35851 1.56906C5.28544 1.59932 5.20504 1.60724 5.12747 1.59181C5.0499 1.57638 4.97865 1.5383 4.92273 1.48237C4.8668 1.42645 4.82872 1.3552 4.81329 1.27763C4.79786 1.20007 4.80578 1.11966 4.83605 1.0466C4.86631 0.973529 4.91756 0.911077 4.98332 0.867139C5.04908 0.8232 5.12639 0.799748 5.20548 0.799748C5.31153 0.799748 5.41324 0.841877 5.48823 0.916868C5.56323 0.991859 5.60535 1.09357 5.60535 1.19962Z" fill="#616161"/>
<path d="M3.54804 16.5872L2.86426 17.0022C3.95297 18.7984 5.53922 20.2404 7.43082 21.1533L7.77871 20.4335C6.02632 19.5873 4.5568 18.2513 3.54804 16.5872Z" fill="#616161"/>
<path d="M9.20502 20.7934H8.40527V21.5932H9.20502V20.7934Z" fill="#616161"/>
</svg>
